<svg width="21" height="21" viewBox="0 0 21 21" fill="none" xmlns="http://www.w3.org/2000/svg">
<path d="M19.0933 5.53867L10.5 0.57735L1.90673 5.53867L1.90673 15.4613L10.5 20.4227L19.0933 15.4613L19.0933 5.53867Z" fill="white" stroke="black"/>
<path d="M12.4434 8.71897C12.4434 8.93897 12.4167 9.14897 12.3634 9.34897C12.3167 9.5423 12.2467 9.73564 12.1534 9.92897C12.06 10.1156 11.9467 10.309 11.8134 10.509C11.6867 10.7023 11.5467 10.9123 11.3934 11.139L9.78336 13.449L12.3734 13.449V14.069L9.02336 14.069L9.02336 13.409L10.9534 10.659C11.1934 10.3123 11.3834 9.98897 11.5234 9.68897C11.6634 9.3823 11.7334 9.07564 11.7334 8.76897C11.7334 8.59564 11.7134 8.4323 11.6734 8.27897C11.6334 8.11897 11.57 7.97897 11.4834 7.85897C11.4034 7.73897 11.3 7.64564 11.1734 7.57897C11.0534 7.50564 10.91 7.46897 10.7434 7.46897C10.4567 7.46897 10.22 7.56564 10.0334 7.75897C9.85336 7.94564 9.73002 8.21897 9.66336 8.57897L9.00336 8.49897C9.09669 7.96564 9.29669 7.5623 9.60336 7.28897C9.91002 7.00897 10.3034 6.86897 10.7834 6.86897C11.0634 6.86897 11.3067 6.91897 11.5134 7.01897C11.72 7.1123 11.89 7.24564 12.0234 7.41897C12.1634 7.58564 12.2667 7.7823 12.3334 8.00897C12.4067 8.22897 12.4434 8.46564 12.4434 8.71897Z" fill="black"/>
</svg>
